<svg width="458" height="132" viewBox="0 0 458 132" fill="none" xmlns="http://www.w3.org/2000/svg">
<g filter="url(#filter0_d_4_2)">
<path d="M18.848 80.28C16.2027 80.28 13.6853 79.5547 11.296 78.104C8.90667 76.568 7.11467 74.264 5.92 71.192C5.49333 70.0827 5.19467 68.9307 5.024 67.736C4.85333 66.456 4.768 65.2187 4.768 64.024C4.768 62.8293 4.98133 62.232 5.408 62.232C5.92 62.232 6.176 62.5733 6.176 63.256C6.176 67.2667 7.15733 70.296 9.12 72.344C11.168 74.392 13.6853 75.416 16.672 75.416C19.6587 75.416 22.5173 74.5627 25.248 72.856C28.064 71.1493 30.6667 68.9733 33.056 66.328C36.9813 62.0613 40.3093 57.752 43.04 53.4C45.7707 48.9627 48.2453 44.44 50.464 39.832C52.768 35.1387 55.072 30.2747 57.376 25.24C58.8267 22.168 60.6187 19.48 62.752 17.176C64.9707 14.872 67.616 13.2933 70.688 12.44L70.816 12.312H63.776C60.7893 12.312 57.632 12.44 54.304 12.696C50.976 12.952 47.9467 13.5067 45.216 14.36C42.5707 15.2133 40.6507 16.4933 39.456 18.2C38.688 19.3093 38.304 20.5893 38.304 22.04C38.304 23.4907 38.688 24.8987 39.456 26.264C40.224 27.6293 41.2053 28.6107 42.4 29.208C42.5707 29.3787 42.656 29.5067 42.656 29.592C42.656 29.7627 42.4427 29.976 42.016 30.232C41.6747 30.4027 41.2907 30.4453 40.864 30.36C40.1813 29.9333 39.328 29.2507 38.304 28.312C37.28 27.288 36.3413 26.2213 35.488 25.112C34.72 24.0027 34.208 23.064 33.952 22.296C33.6107 21.272 33.44 20.248 33.44 19.224C33.44 17.176 34.1653 15.512 35.616 14.232C37.152 12.952 39.1147 11.9707 41.504 11.288C43.8933 10.6053 46.4533 10.136 49.184 9.88C52 9.53866 54.688 9.368 57.248 9.368C59.8933 9.28266 62.1547 9.24 64.032 9.24H77.856C78.0267 9.24 78.112 9.28266 78.112 9.368C78.112 9.624 77.8133 10.008 77.216 10.52C76.704 10.9467 76.3627 11.16 76.192 11.16C74.0587 11.5867 72.48 12.7387 71.456 14.616C70.432 16.408 69.9627 19.3093 70.048 23.32C70.048 23.32 70.048 24.2587 70.048 26.136C70.1333 28.0133 70.2187 30.4453 70.304 33.432C70.3893 36.4187 70.4747 39.6187 70.56 43.032C70.6453 46.4453 70.7307 49.7307 70.816 52.888C70.9013 56.0453 70.9867 58.6907 71.072 60.824V61.592L115.488 14.744C118.304 11.7573 121.077 9.24 123.808 7.19199C126.624 5.05866 129.525 4.12 132.512 4.376C132.597 4.376 132.64 4.41867 132.64 4.504C132.725 4.504 132.768 4.504 132.768 4.504C132.768 4.75999 132.597 5.05866 132.256 5.39999C131.915 5.74133 131.531 5.95466 131.104 6.03999C128.885 5.95466 126.88 6.808 125.088 8.6C123.296 10.392 121.632 12.5253 120.096 15C119.328 16.28 118.176 18.328 116.64 21.144C115.104 23.8747 113.355 27.1173 111.392 30.872C109.515 34.6267 107.595 38.5947 105.632 42.776C103.669 46.9573 101.835 51.0533 100.128 55.064C98.5067 59.0747 97.184 62.744 96.16 66.072C95.136 69.3147 94.624 71.96 94.624 74.008C94.624 76.3973 95.4347 77.592 97.056 77.592C97.7387 77.592 98.464 77.4213 99.232 77.08C100.341 76.6533 101.579 76.0133 102.944 75.16C104.309 74.3067 105.547 73.3253 106.656 72.216C108.875 70.0827 110.837 67.9067 112.544 65.688C114.251 63.384 115.275 62.0613 115.616 61.72C115.872 61.3787 116.085 61.208 116.256 61.208C116.597 61.208 116.768 61.464 116.768 61.976C116.768 62.488 116.597 62.9573 116.256 63.384C115.573 64.2373 114.421 65.7307 112.8 67.864C111.179 69.912 109.259 72.0027 107.04 74.136C104.907 76.2693 102.603 77.8907 100.128 79C99.36 79.3413 98.5493 79.5973 97.696 79.768C96.8427 80.024 95.9893 80.152 95.136 80.152C93.2587 80.152 91.552 79.5973 90.016 78.488C88.5653 77.2933 87.84 75.3307 87.84 72.6C87.84 69.9547 88.4373 66.968 89.632 63.64C90.912 60.2267 92.32 56.9413 93.856 53.784C95.4773 50.5413 96.8 47.8107 97.824 45.592C98.9333 43.288 100.341 40.344 102.048 36.76C103.755 33.176 105.717 29.5493 107.936 25.88L71.072 64.792C70.9867 65.4747 70.688 66.1573 70.176 66.84C69.664 67.4373 68.8533 67.9493 67.744 68.376C67.1467 68.632 66.336 69.3147 65.312 70.424C64.288 71.5333 63.6053 72.3013 63.264 72.728C63.264 72.8133 63.136 72.856 62.88 72.856C62.624 72.856 62.368 72.7707 62.112 72.6C61.856 72.4293 61.7707 72.3013 61.856 72.216C64.0747 69.4 65.2267 65.5173 65.312 60.568L65.44 57.496C65.6107 53.912 65.7387 50.1573 65.824 46.232C65.9093 42.2213 65.952 38.5093 65.952 35.096C66.0373 31.5973 66.08 28.7813 66.08 26.648C66.08 24.4293 66.08 23.32 66.08 23.32C66.08 21.272 66.3787 19.48 66.976 17.944C67.5733 16.408 68.2987 15.0853 69.152 13.976C67.7013 15.0853 66.2933 16.408 64.928 17.944C63.5627 19.48 62.4107 21.1867 61.472 23.064C60.192 25.7093 58.7413 29.1227 57.12 33.304C55.4987 37.4853 53.6213 41.9227 51.488 46.616C49.44 51.3093 47.136 55.9173 44.576 60.44C42.1013 64.8773 39.328 68.7173 36.256 71.96C34.1227 74.264 31.392 76.2267 28.064 77.848C24.8213 79.4693 21.7493 80.28 18.848 80.28ZM132.01 79.384C131.157 79.384 130.431 79.2133 129.834 78.872C129.237 78.5307 128.938 77.8907 128.938 76.952C128.938 75.7573 129.237 74.392 129.834 72.856C130.431 71.32 131.114 69.8267 131.882 68.376C132.65 66.84 133.333 65.6027 133.93 64.664C130.943 67.8213 127.829 70.808 124.586 73.624C122.965 74.9893 121.173 76.2693 119.21 77.464C117.247 78.6587 115.157 79.256 112.938 79.256C112.085 79.256 111.487 79 111.146 78.488C110.805 77.8907 110.634 77.208 110.634 76.44C110.634 76.0133 110.677 75.7147 110.762 75.544C111.189 72.216 112.255 68.76 113.962 65.176C115.669 61.592 117.759 58.2213 120.234 55.064C122.709 51.9067 125.226 49.3467 127.786 47.384C130.687 45.1653 133.887 44.056 137.386 44.056H152.106C152.533 44.056 152.746 44.2267 152.746 44.568C152.746 45.2507 152.362 45.592 151.594 45.592C150.741 45.592 149.887 46.1467 149.034 47.256C148.181 48.28 147.541 49.1333 147.114 49.816C146.517 50.7547 145.578 52.3333 144.298 54.552C143.018 56.7707 141.695 59.2027 140.33 61.848C139.05 64.408 137.941 66.7973 137.002 69.016C136.063 71.2347 135.594 72.856 135.594 73.88C135.594 75.0747 136.191 75.672 137.386 75.672C138.666 75.672 140.117 75.0747 141.738 73.88C143.359 72.6853 144.981 71.2347 146.602 69.528C148.309 67.736 149.845 65.9867 151.21 64.28C152.661 62.488 153.813 61.08 154.666 60.056C155.178 60.568 155.135 61.2933 154.538 62.232C154.026 63.0853 153.557 63.768 153.13 64.28C151.423 66.4987 149.461 68.8027 147.242 71.192C145.023 73.496 142.591 75.4587 139.946 77.08C137.386 78.616 134.741 79.384 132.01 79.384ZM118.186 74.904C119.21 74.904 120.618 74.1787 122.41 72.728C124.287 71.192 126.293 69.3147 128.426 67.096C130.559 64.792 132.565 62.4027 134.442 59.928C136.319 57.368 137.855 55.064 139.05 53.016C140.33 50.8827 140.97 49.2613 140.97 48.152C140.97 47.2133 140.671 46.5733 140.074 46.232C139.562 45.8907 138.879 45.72 138.026 45.72C136.661 45.72 135.167 46.232 133.546 47.256C132.01 48.1947 130.773 49.1333 129.834 50.072C128.81 51.0107 127.573 52.504 126.122 54.552C124.757 56.5147 123.391 58.6907 122.026 61.08C120.661 63.4693 119.509 65.7733 118.57 67.992C117.631 70.2107 117.162 72.0027 117.162 73.368C117.162 74.392 117.503 74.904 118.186 74.904ZM152.995 80.92C152.654 80.92 152.654 80.536 152.995 79.768C153.422 79 153.806 78.1467 154.147 77.208C154.574 76.2693 155 75.2453 155.427 74.136C156.28 72.088 157.219 69.784 158.243 67.224C159.267 64.664 160.248 62.1893 161.187 59.8C162.126 57.3253 162.936 55.2347 163.619 53.528C164.387 51.736 164.899 50.584 165.155 50.072C163.96 51.352 162.51 52.9733 160.803 54.936C159.182 56.8133 157.646 58.648 156.195 60.44C154.744 62.232 153.635 63.64 152.867 64.664C152.611 65.0053 152.398 65.176 152.227 65.176C152.056 65.176 151.971 64.9627 151.971 64.536C151.971 63.8533 152.184 63.2133 152.611 62.616C154.232 60.568 156.024 58.264 157.987 55.704C160.035 53.144 161.87 50.7973 163.491 48.664C165.112 46.4453 166.136 44.9947 166.563 44.312C167.502 44.1413 168.867 43.8853 170.659 43.544C172.536 43.2027 173.816 42.7333 174.499 42.136C174.755 41.88 175.011 41.752 175.267 41.752C175.438 41.752 175.523 41.9227 175.523 42.264C175.608 42.52 175.523 42.8187 175.267 43.16C174.755 43.7573 173.859 45.1653 172.579 47.384C171.384 49.5173 170.062 51.9067 168.611 54.552C167.246 57.1973 165.966 59.5867 164.771 61.72C165.795 60.3547 166.904 59.032 168.099 57.752C169.294 56.472 170.446 55.2347 171.555 54.04C172.579 53.016 173.987 51.736 175.779 50.2C177.571 48.664 179.448 47.256 181.411 45.976C183.374 44.696 185.08 43.9707 186.531 43.8C186.872 43.7147 187.171 43.672 187.427 43.672C187.768 43.672 188.024 43.672 188.195 43.672C190.072 43.672 191.011 44.3547 191.011 45.72C191.011 46.744 190.456 48.1093 189.347 49.816C188.75 50.7547 187.811 52.3333 186.531 54.552C185.336 56.6853 184.099 59.032 182.819 61.592C181.624 64.0667 180.558 66.4133 179.619 68.632C178.766 70.7653 178.339 72.344 178.339 73.368C178.339 74.5627 178.936 75.16 180.131 75.16C181.582 75.16 183.16 74.4347 184.867 72.984C186.659 71.5333 188.579 69.6987 190.627 67.48C192.675 65.176 194.723 62.744 196.771 60.184C196.942 60.3547 197.027 60.6533 197.027 61.08C197.027 61.6773 196.814 62.2747 196.387 62.872C196.046 63.384 195.704 63.8533 195.363 64.28C194.51 65.3893 193.358 66.7973 191.907 68.504C190.542 70.1253 189.134 71.7467 187.683 73.368C186.232 74.904 184.91 76.1413 183.715 77.08C182.862 77.6773 181.752 78.3173 180.387 79C179.022 79.6827 177.656 80.024 176.291 80.024C174.755 80.024 173.688 79.64 173.091 78.872C172.494 78.0187 172.195 76.9947 172.195 75.8C172.195 74.4347 172.451 72.984 172.963 71.448C173.475 69.912 174.03 68.4613 174.627 67.096C175.31 65.6453 175.822 64.5787 176.163 63.896C177.699 60.9093 179.107 58.0933 180.387 55.448C181.667 52.8027 182.563 50.9253 183.075 49.816C183.331 49.304 183.459 48.8773 183.459 48.536C183.459 47.9387 182.99 47.896 182.051 48.408C181.112 48.92 179.96 49.688 178.595 50.712C177.315 51.736 176.12 52.76 175.011 53.784C173.902 54.7227 173.176 55.3627 172.835 55.704C169.678 59.032 166.904 62.744 164.515 66.84C162.211 70.8507 160.248 74.9893 158.627 79.256C157.518 79.3413 156.408 79.64 155.299 80.152C154.19 80.664 153.422 80.92 152.995 80.92ZM221.101 30.104C219.906 30.104 219.053 29.72 218.541 28.952C218.2 28.5253 218.029 27.9707 218.029 27.288C218.029 25.9227 218.669 24.8133 219.949 23.96C220.888 23.448 221.741 23.192 222.509 23.192C223.789 23.192 224.685 23.576 225.197 24.344C225.538 24.7707 225.709 25.3253 225.709 26.008C225.709 27.3733 225.026 28.4827 223.661 29.336C222.893 29.848 222.04 30.104 221.101 30.104ZM198.829 79.384C197.976 79.384 197.25 79.2133 196.653 78.872C196.141 78.5307 195.885 77.8907 195.885 76.952C195.885 75.7573 196.184 74.3493 196.781 72.728C197.464 71.1067 198.189 69.4853 198.957 67.864C199.81 66.2427 200.45 64.92 200.877 63.896C201.474 62.7013 202.2 61.1653 203.053 59.288C203.992 57.3253 204.845 55.4907 205.613 53.784C206.466 51.992 207.064 50.7547 207.405 50.072C206.21 51.352 204.76 52.9733 203.053 54.936C201.432 56.8133 199.896 58.648 198.445 60.44C196.994 62.232 195.885 63.64 195.117 64.664C194.861 65.0053 194.648 65.176 194.477 65.176C194.306 65.176 194.221 64.9627 194.221 64.536C194.221 63.8533 194.434 63.2133 194.861 62.616C196.482 60.568 198.274 58.264 200.237 55.704C202.285 53.144 204.12 50.7973 205.741 48.664C207.362 46.4453 208.386 44.9947 208.813 44.312C209.752 44.1413 211.117 43.8853 212.909 43.544C214.786 43.2027 216.066 42.7333 216.749 42.136C217.005 41.88 217.261 41.752 217.517 41.752C217.688 41.752 217.773 41.9227 217.773 42.264C217.858 42.52 217.773 42.8187 217.517 43.16C217.005 43.7573 216.109 45.208 214.829 47.512C213.549 49.816 212.184 52.376 210.733 55.192C209.368 57.9227 208.088 60.3973 206.893 62.616C205.698 64.92 204.674 67.1387 203.821 69.272C202.968 71.4053 202.541 72.9413 202.541 73.88C202.541 75.0747 203.138 75.672 204.333 75.672C205.442 75.672 206.85 74.9893 208.557 73.624C210.349 72.2587 212.141 70.6373 213.933 68.76C215.725 66.7973 217.304 65.0053 218.669 63.384C219.096 62.872 219.608 62.2747 220.205 61.592C220.888 60.824 221.314 60.3547 221.485 60.184C221.656 60.3547 221.741 60.6533 221.741 61.08C221.656 61.6773 221.442 62.2747 221.101 62.872C220.76 63.384 220.418 63.8533 220.077 64.28C218.285 66.4987 216.322 68.8027 214.189 71.192C212.056 73.496 209.709 75.4587 207.149 77.08C204.589 78.616 201.816 79.384 198.829 79.384ZM242.014 79.64C239.881 79.64 238.259 78.9147 237.15 77.464C236.467 76.44 235.785 74.904 235.102 72.856C234.419 70.808 233.822 68.6747 233.31 66.456C232.798 64.2373 232.371 62.4453 232.03 61.08C229.641 64.152 227.507 67.224 225.63 70.296C223.838 73.368 222.643 75.7573 222.046 77.464C221.875 77.976 221.278 78.4027 220.254 78.744C219.315 79.0853 218.377 79.256 217.438 79.256C216.073 79.256 215.561 78.8293 215.902 77.976C218.547 72.088 221.065 66.4133 223.454 60.952C225.843 55.4907 228.361 49.9867 231.006 44.44C233.737 38.8933 236.809 33.1333 240.222 27.16C242.611 22.808 245.47 18.6267 248.798 14.616C252.211 10.52 255.838 7.192 259.678 4.632C263.518 1.98666 267.401 0.663994 271.326 0.663994C272.606 0.663994 273.801 1.00533 274.91 1.688C276.019 2.37066 276.574 3.43733 276.574 4.88799V8.6C276.574 8.94133 276.318 9.112 275.806 9.112C275.55 9.112 275.422 9.02666 275.422 8.856C275.422 7.49066 274.825 6.59467 273.63 6.168C272.435 5.656 271.283 5.39999 270.174 5.39999C267.187 5.39999 264.158 5.99733 261.086 7.19199C257.673 8.55733 254.814 10.6053 252.51 13.336C250.206 16.0667 248.073 18.968 246.11 22.04C243.55 25.9653 241.033 30.5733 238.558 35.864C236.083 41.0693 233.779 46.3173 231.646 51.608C229.598 56.8987 227.763 61.6773 226.142 65.944C227.081 64.7493 228.019 63.5547 228.958 62.36C229.897 61.1653 230.793 60.056 231.646 59.032C231.646 58.8613 231.603 58.6907 231.518 58.52C231.518 58.3493 231.518 58.1787 231.518 58.008C231.518 57.4107 231.646 56.8987 231.902 56.472C232.158 56.0453 232.499 55.5333 232.926 54.936C233.523 54.0827 234.078 53.4427 234.59 53.016C235.102 52.504 235.657 51.864 236.254 51.096L236.638 53.272C240.393 49.432 243.678 46.6587 246.494 44.952C248.457 43.7573 250.377 43.16 252.254 43.16C254.131 43.16 255.07 43.8853 255.07 45.336C255.07 46.5307 254.473 48.024 253.278 49.816C252.851 50.4133 252.595 50.84 252.51 51.096C252.425 51.352 252.254 51.608 251.998 51.864C251.913 51.9493 251.742 51.9493 251.486 51.864C251.23 51.7787 251.102 51.6507 251.102 51.48C251.102 50.456 250.761 49.816 250.078 49.56C249.395 49.2187 248.627 49.048 247.774 49.048C246.153 49.048 244.403 49.6453 242.526 50.84C240.734 51.9493 238.899 53.4853 237.022 55.448C237.449 57.5813 237.918 59.928 238.43 62.488C239.027 64.9627 239.667 67.2667 240.35 69.4C241.033 71.5333 241.673 73.112 242.27 74.136C242.697 74.8187 243.294 75.288 244.062 75.544C244.83 75.7147 245.47 75.8 245.982 75.8C247.177 75.8 248.542 75.2027 250.078 74.008C251.699 72.728 253.321 71.2347 254.942 69.528C256.649 67.736 258.185 65.9867 259.55 64.28C261.001 62.5733 262.11 61.208 262.878 60.184C263.219 60.6107 263.305 61.0373 263.134 61.464C263.049 61.976 262.793 62.5307 262.366 63.128C262.025 63.64 261.683 64.1093 261.342 64.536C259.635 66.6693 257.801 68.8453 255.838 71.064C253.875 73.1973 251.785 75.1173 249.566 76.824C248.627 77.592 247.475 78.2747 246.11 78.872C244.745 79.384 243.379 79.64 242.014 79.64ZM241.651 123.8C238.408 123.8 235.294 123.032 232.307 121.496C229.235 120.045 226.974 117.784 225.523 114.712C225.011 113.603 224.67 112.408 224.499 111.128C224.328 109.933 224.243 108.739 224.243 107.544V106.136C224.243 105.453 224.328 104.813 224.499 104.216C224.67 103.704 225.096 103.448 225.779 103.448C226.035 103.448 226.163 103.533 226.163 103.704C226.163 104.216 226.12 104.728 226.035 105.24C225.864 105.752 225.779 106.307 225.779 106.904C225.779 110.829 227.059 113.816 229.619 115.864C232.094 117.912 235.208 118.936 238.963 118.936C240.499 118.936 242.078 118.765 243.699 118.424C245.32 118.083 246.856 117.613 248.307 117.016C253.683 114.712 258.376 111.469 262.387 107.288C266.398 103.107 269.896 98.3707 272.883 93.08C275.87 87.7893 278.515 82.3707 280.819 76.824C283.294 70.7653 285.64 64.792 287.859 58.904C290.163 52.9307 292.723 47.0853 295.539 41.368C298.184 36.0773 301 32.1093 303.987 29.464C306.974 26.8187 309.96 25.496 312.947 25.496C313.715 25.496 314.44 25.7093 315.123 26.136C315.891 26.5627 316.232 27.2453 316.147 28.184L315.891 31.768C315.891 32.024 315.72 32.152 315.379 32.152C315.379 32.152 315.336 32.152 315.251 32.152C315.251 32.152 315.251 32.1093 315.251 32.024C315.251 31 314.867 30.3173 314.099 29.976C313.416 29.5493 312.734 29.336 312.051 29.336C309.15 29.336 306.547 30.36 304.243 32.408C302.024 34.3707 300.062 36.9307 298.355 40.088C296.648 43.2453 295.198 46.5733 294.003 50.072C292.808 53.4853 291.827 56.6427 291.059 59.544C291.656 59.032 292.723 57.9653 294.259 56.344C295.88 54.7227 297.758 52.9733 299.891 51.096C302.024 49.2187 304.2 47.5973 306.419 46.232C308.638 44.8667 310.686 44.184 312.563 44.184C313.672 44.184 314.312 44.696 314.483 45.72C314.739 46.6587 314.782 47.5547 314.611 48.408C314.184 51.5653 313.118 54.9787 311.411 58.648C309.704 62.3173 307.486 65.816 304.755 69.144C302.11 72.3867 299.123 75.032 295.795 77.08C292.552 79.128 289.139 80.152 285.555 80.152C285.128 80.152 284.531 80.1093 283.763 80.024C283.08 80.024 282.654 79.9387 282.483 79.768C280.691 85.144 278.387 90.648 275.571 96.28C272.755 101.912 269.384 106.989 265.459 111.512C261.448 116.12 256.712 119.576 251.251 121.88C248.35 123.16 245.15 123.8 241.651 123.8ZM287.475 77.976C288.755 77.976 290.206 77.464 291.827 76.44C293.534 75.3307 294.814 74.3493 295.667 73.496C296.691 72.5573 297.886 71.1067 299.251 69.144C300.702 67.096 302.11 64.8773 303.475 62.488C304.926 60.0987 306.12 57.7947 307.059 55.576C307.998 53.3573 308.467 51.5653 308.467 50.2C308.467 49.7733 308.382 49.3893 308.211 49.048C308.04 48.7067 307.742 48.536 307.315 48.536C306.547 48.536 305.523 49.0053 304.243 49.944C302.963 50.8827 301.598 52.0347 300.147 53.4C298.782 54.68 297.502 55.96 296.307 57.24C295.112 58.4347 294.259 59.3307 293.747 59.928C292.894 60.952 291.742 62.4453 290.291 64.408C288.84 66.3707 287.56 68.376 286.451 70.424C285.342 72.3867 284.787 74.0507 284.787 75.416C284.787 77.1227 285.683 77.976 287.475 77.976ZM332.26 79.384C331.407 79.384 330.681 79.2133 330.084 78.872C329.487 78.5307 329.188 77.8907 329.188 76.952C329.188 75.7573 329.487 74.392 330.084 72.856C330.681 71.32 331.364 69.8267 332.132 68.376C332.9 66.84 333.583 65.6027 334.18 64.664C331.193 67.8213 328.079 70.808 324.836 73.624C323.215 74.9893 321.423 76.2693 319.46 77.464C317.497 78.6587 315.407 79.256 313.188 79.256C312.335 79.256 311.737 79 311.396 78.488C311.055 77.8907 310.884 77.208 310.884 76.44C310.884 76.0133 310.927 75.7147 311.012 75.544C311.439 72.216 312.505 68.76 314.212 65.176C315.919 61.592 318.009 58.2213 320.484 55.064C322.959 51.9067 325.476 49.3467 328.036 47.384C330.937 45.1653 334.137 44.056 337.636 44.056H352.356C352.783 44.056 352.996 44.2267 352.996 44.568C352.996 45.2507 352.612 45.592 351.844 45.592C350.991 45.592 350.137 46.1467 349.284 47.256C348.431 48.28 347.791 49.1333 347.364 49.816C346.767 50.7547 345.828 52.3333 344.548 54.552C343.268 56.7707 341.945 59.2027 340.58 61.848C339.3 64.408 338.191 66.7973 337.252 69.016C336.313 71.2347 335.844 72.856 335.844 73.88C335.844 75.0747 336.441 75.672 337.636 75.672C338.916 75.672 340.367 75.0747 341.988 73.88C343.609 72.6853 345.231 71.2347 346.852 69.528C348.559 67.736 350.095 65.9867 351.46 64.28C352.911 62.488 354.063 61.08 354.916 60.056C355.428 60.568 355.385 61.2933 354.788 62.232C354.276 63.0853 353.807 63.768 353.38 64.28C351.673 66.4987 349.711 68.8027 347.492 71.192C345.273 73.496 342.841 75.4587 340.196 77.08C337.636 78.616 334.991 79.384 332.26 79.384ZM318.436 74.904C319.46 74.904 320.868 74.1787 322.66 72.728C324.537 71.192 326.543 69.3147 328.676 67.096C330.809 64.792 332.815 62.4027 334.692 59.928C336.569 57.368 338.105 55.064 339.3 53.016C340.58 50.8827 341.22 49.2613 341.22 48.152C341.22 47.2133 340.921 46.5733 340.324 46.232C339.812 45.8907 339.129 45.72 338.276 45.72C336.911 45.72 335.417 46.232 333.796 47.256C332.26 48.1947 331.023 49.1333 330.084 50.072C329.06 51.0107 327.823 52.504 326.372 54.552C325.007 56.5147 323.641 58.6907 322.276 61.08C320.911 63.4693 319.759 65.7733 318.82 67.992C317.881 70.2107 317.412 72.0027 317.412 73.368C317.412 74.392 317.753 74.904 318.436 74.904ZM357.597 79.384C356.744 79.384 356.018 79.2133 355.421 78.872C354.824 78.5307 354.525 77.8907 354.525 76.952C354.525 75.7573 354.824 74.3493 355.421 72.728C356.104 71.1067 356.829 69.4853 357.597 67.864C358.365 66.2427 359.005 64.92 359.517 63.896C359.944 63.128 360.498 61.9333 361.181 60.312C361.949 58.6053 362.717 56.856 363.485 55.064C364.338 53.1867 365.021 51.608 365.533 50.328C366.13 49.048 366.429 48.408 366.429 48.408C365.661 49.2613 364.637 50.456 363.357 51.992C362.162 53.528 360.84 55.1493 359.389 56.856C358.024 58.4773 356.744 60.0133 355.549 61.464C354.44 62.9147 353.629 63.9813 353.117 64.664C352.861 65.0053 352.648 65.176 352.477 65.176C352.306 65.176 352.221 64.9627 352.221 64.536C352.221 63.8533 352.434 63.2133 352.861 62.616C353.885 61.336 355.122 59.8 356.573 58.008C358.024 56.1307 359.474 54.2533 360.925 52.376C362.461 50.4987 363.784 48.8347 364.893 47.384C364.21 47.384 363.314 47.4267 362.205 47.512C361.181 47.5973 360.242 47.7253 359.389 47.896C358.536 47.9813 358.066 48.024 357.981 48.024C357.554 48.024 357.597 47.6827 358.109 47C358.621 46.3173 359.304 45.6347 360.157 44.952C361.01 44.2693 361.65 43.928 362.077 43.928C362.162 43.928 362.845 43.9707 364.125 44.056C365.405 44.056 366.344 44.056 366.941 44.056C368.648 41.752 370.312 39.1067 371.933 36.12C373.64 33.1333 375.304 29.848 376.925 26.264C377.608 26.1787 378.76 25.7093 380.381 24.856C382.088 23.9173 383.41 22.9787 384.349 22.04C384.776 21.6133 385.117 21.4 385.373 21.4C385.885 21.4 385.885 21.7413 385.373 22.424C384.776 23.1067 383.752 24.5573 382.301 26.776C380.85 28.9093 379.229 31.512 377.437 34.584C375.645 37.5707 373.938 40.728 372.317 44.056H382.685C383.624 44.056 384.093 44.184 384.093 44.44C384.093 44.7813 383.453 45.1227 382.173 45.464C380.722 45.8907 379.186 46.1467 377.565 46.232C376.029 46.3173 374.578 46.488 373.213 46.744C371.933 47 370.994 47.5547 370.397 48.408C369.885 49.0053 369.16 50.2853 368.221 52.248C367.282 54.2107 366.258 56.472 365.149 59.032C364.125 61.5067 363.229 64.024 362.461 66.584C361.693 69.0587 361.224 71.1493 361.053 72.856V73.368C361.053 74.0507 361.266 74.6053 361.693 75.032C362.12 75.4587 362.546 75.672 362.973 75.672C364.082 75.672 365.49 74.9893 367.197 73.624C368.989 72.2587 370.824 70.6373 372.701 68.76C374.578 66.7973 376.2 65.0053 377.565 63.384C378.162 62.7013 378.674 62.0613 379.101 61.464C379.613 60.8667 379.912 60.4827 379.997 60.312C380.168 60.6533 380.253 60.9093 380.253 61.08C380.253 61.592 380.082 62.1467 379.741 62.744C379.485 63.3413 379.186 63.8533 378.845 64.28C377.224 66.4133 375.261 68.6747 372.957 71.064C370.653 73.368 368.178 75.3307 365.533 76.952C362.973 78.5733 360.328 79.384 357.597 79.384ZM378.62 80.792C378.279 80.792 378.279 80.4507 378.62 79.768C379.047 79 379.431 78.1467 379.772 77.208C380.199 76.2693 380.625 75.2453 381.052 74.136C381.905 72.088 382.844 69.784 383.868 67.224C384.892 64.664 385.873 62.1893 386.812 59.8C387.751 57.3253 388.561 55.2347 389.244 53.528C390.012 51.736 390.524 50.584 390.78 50.072C389.585 51.352 388.135 52.9733 386.428 54.936C384.807 56.8133 383.271 58.648 381.82 60.44C380.369 62.232 379.26 63.64 378.492 64.664C378.236 65.0053 378.023 65.176 377.852 65.176C377.681 65.176 377.596 64.9627 377.596 64.536C377.596 63.8533 377.809 63.2133 378.236 62.616C379.857 60.568 381.649 58.264 383.612 55.704C385.66 53.144 387.495 50.7973 389.116 48.664C390.737 46.4453 391.761 44.9947 392.188 44.312C393.127 44.1413 394.492 43.8853 396.284 43.544C398.161 43.2027 399.441 42.7333 400.124 42.136C400.38 41.88 400.636 41.752 400.892 41.752C401.063 41.752 401.148 41.9227 401.148 42.264C401.233 42.52 401.148 42.8187 400.892 43.16C400.38 43.672 399.612 44.7813 398.588 46.488C397.649 48.1947 396.583 50.1573 395.388 52.376C394.193 54.5947 393.041 56.728 391.932 58.776C392.785 57.496 393.895 56.0027 395.26 54.296C396.711 52.504 398.289 50.7973 399.996 49.176C401.703 47.4693 403.409 46.0613 405.116 44.952C406.908 43.8427 408.572 43.288 410.108 43.288C411.217 43.288 412.156 43.544 412.924 44.056C413.692 44.4827 414.289 45.2933 414.716 46.488C414.972 47.0853 415.1 47.768 415.1 48.536C415.1 49.9867 414.716 51.3947 413.948 52.76C413.265 54.04 412.753 55.0213 412.412 55.704C412.327 55.96 412.028 56.216 411.516 56.472C411.004 56.6427 410.791 56.5573 410.876 56.216C410.961 55.7893 411.004 55.3627 411.004 54.936C411.089 54.5093 411.132 54.04 411.132 53.528C411.132 52.0773 410.833 50.7547 410.236 49.56C409.724 48.3653 408.743 47.768 407.292 47.768C405.927 47.768 404.263 48.6213 402.3 50.328C400.337 52.0347 398.375 53.9973 396.412 56.216C393.937 59.1173 391.975 61.8907 390.524 64.536C389.073 67.096 387.879 69.6133 386.94 72.088C386.428 73.4533 385.916 74.8187 385.404 76.184C384.892 77.464 384.508 78.488 384.252 79.256C383.143 79.3413 382.033 79.5973 380.924 80.024C379.815 80.536 379.047 80.792 378.62 80.792ZM430.135 79.384C429.282 79.384 428.556 79.2133 427.959 78.872C427.362 78.5307 427.063 77.8907 427.063 76.952C427.063 75.7573 427.362 74.392 427.959 72.856C428.556 71.32 429.239 69.8267 430.007 68.376C430.775 66.84 431.458 65.6027 432.055 64.664C429.068 67.8213 425.954 70.808 422.711 73.624C421.09 74.9893 419.298 76.2693 417.335 77.464C415.372 78.6587 413.282 79.256 411.063 79.256C410.21 79.256 409.612 79 409.271 78.488C408.93 77.8907 408.759 77.208 408.759 76.44C408.759 76.0133 408.802 75.7147 408.887 75.544C409.314 72.216 410.38 68.76 412.087 65.176C413.794 61.592 415.884 58.2213 418.359 55.064C420.834 51.9067 423.351 49.3467 425.911 47.384C428.812 45.1653 432.012 44.056 435.511 44.056H450.231C450.658 44.056 450.871 44.2267 450.871 44.568C450.871 45.2507 450.487 45.592 449.719 45.592C448.866 45.592 448.012 46.1467 447.159 47.256C446.306 48.28 445.666 49.1333 445.239 49.816C444.642 50.7547 443.703 52.3333 442.423 54.552C441.143 56.7707 439.82 59.2027 438.455 61.848C437.175 64.408 436.066 66.7973 435.127 69.016C434.188 71.2347 433.719 72.856 433.719 73.88C433.719 75.0747 434.316 75.672 435.511 75.672C436.791 75.672 438.242 75.0747 439.863 73.88C441.484 72.6853 443.106 71.2347 444.727 69.528C446.434 67.736 447.97 65.9867 449.335 64.28C450.786 62.488 451.938 61.08 452.791 60.056C453.303 60.568 453.26 61.2933 452.663 62.232C452.151 63.0853 451.682 63.768 451.255 64.28C449.548 66.4987 447.586 68.8027 445.367 71.192C443.148 73.496 440.716 75.4587 438.071 77.08C435.511 78.616 432.866 79.384 430.135 79.384ZM416.311 74.904C417.335 74.904 418.743 74.1787 420.535 72.728C422.412 71.192 424.418 69.3147 426.551 67.096C428.684 64.792 430.69 62.4027 432.567 59.928C434.444 57.368 435.98 55.064 437.175 53.016C438.455 50.8827 439.095 49.2613 439.095 48.152C439.095 47.2133 438.796 46.5733 438.199 46.232C437.687 45.8907 437.004 45.72 436.151 45.72C434.786 45.72 433.292 46.232 431.671 47.256C430.135 48.1947 428.898 49.1333 427.959 50.072C426.935 51.0107 425.698 52.504 424.247 54.552C422.882 56.5147 421.516 58.6907 420.151 61.08C418.786 63.4693 417.634 65.7733 416.695 67.992C415.756 70.2107 415.287 72.0027 415.287 73.368C415.287 74.392 415.628 74.904 416.311 74.904Z" fill="white"/>
</g>
<defs>
<filter id="filter0_d_4_2" x="0.768005" y="0.663994" width="456.791" height="131.136" filterUnits="userSpaceOnUse" color-interpolation-filters="sRGB">
<feFlood flood-opacity="0" result="BackgroundImageFix"/>
<feColorMatrix in="SourceAlpha" type="matrix" values="0 0 0 0 0 0 0 0 0 0 0 0 0 0 0 0 0 0 127 0" result="hardAlpha"/>
<feOffset dy="4"/>
<feGaussianBlur stdDeviation="2"/>
<feComposite in2="hardAlpha" operator="out"/>
<feColorMatrix type="matrix" values="0 0 0 0 0 0 0 0 0 0 0 0 0 0 0 0 0 0 0.25 0"/>
<feBlend mode="normal" in2="BackgroundImageFix" result="effect1_dropShadow_4_2"/>
<feBlend mode="normal" in="SourceGraphic" in2="effect1_dropShadow_4_2" result="shape"/>
</filter>
</defs>
</svg>
