<svg width="819" height="230" viewBox="0 0 819 230" fill="none" xmlns="http://www.w3.org/2000/svg">
<g filter="url(#filter0_d_108_15)">
<path d="M4 108.878C4 48.7463 55.42 0 118.85 0C182.28 0 233.7 48.7462 233.7 108.878V113.122C233.7 173.254 182.28 222 118.85 222C55.42 222 4 173.254 4 113.122V108.878Z" fill="white"/>
<path d="M97.227 64.8678H118.854V184.03H97.227V64.8678Z" fill="#F6450D"/>
<path d="M57.541 48.281H118.854L118.854 64.8678L42.8099 64.8689L57.541 48.281Z" fill="#F6450D"/>
<path d="M118.851 138.329C118.851 138.329 118.852 138.329 118.852 138.329C146.209 138.329 168.386 118.171 168.386 93.3046C168.386 68.4384 146.209 48.2803 118.852 48.2803C118.852 48.2803 118.851 48.2803 118.851 48.2803V63.8526C118.91 63.8523 118.969 63.8522 119.029 63.8522C137.619 63.8522 152.69 77.5688 152.69 94.4891C152.69 111.409 137.619 125.126 119.029 125.126C118.969 125.126 118.91 125.126 118.851 125.125V138.329Z" fill="#F6450D"/>
<path d="M265.805 165.311V92.8463H291.25C296.346 92.8463 300.779 93.7728 304.548 95.6258C308.388 97.4787 311.355 100.093 313.449 103.468C315.543 106.777 316.59 110.681 316.59 115.181C316.59 119.615 315.508 123.52 313.344 126.895C311.25 130.27 308.318 132.884 304.548 134.737C300.779 136.59 296.346 137.516 291.25 137.516H278.894V165.311H265.805ZM278.894 126.299H291.25C294.88 126.299 297.777 125.306 299.941 123.321C302.175 121.269 303.292 118.556 303.292 115.181C303.292 111.74 302.175 109.027 299.941 107.041C297.777 105.056 294.88 104.063 291.25 104.063H278.894V126.299Z" fill="#F6450D"/>
<path d="M345.554 166.303C339.62 166.303 334.943 164.814 331.523 161.836C328.102 158.858 326.392 154.854 326.392 149.825C326.392 144.465 328.277 140.329 332.046 137.417C335.816 134.505 341.156 133.049 348.067 133.049H362.412V128.384C362.412 125.736 361.505 123.685 359.69 122.229C357.875 120.707 355.397 119.946 352.256 119.946C349.393 119.946 347.02 120.542 345.135 121.733C343.25 122.924 342.134 124.545 341.784 126.597H329.01C329.638 121.435 332.081 117.332 336.34 114.288C340.598 111.244 346.043 109.722 352.674 109.722C359.725 109.722 365.275 111.409 369.323 114.784C373.442 118.093 375.501 122.593 375.501 128.284V165.311H362.831V155.781H360.737L362.831 153.101C362.831 157.138 361.261 160.347 358.119 162.73C354.978 165.112 350.79 166.303 345.554 166.303ZM349.847 156.972C353.547 156.972 356.549 156.079 358.852 154.292C361.226 152.505 362.412 150.189 362.412 147.343V140.693H348.277C345.624 140.693 343.495 141.42 341.889 142.876C340.284 144.332 339.481 146.251 339.481 148.634C339.481 151.215 340.388 153.266 342.203 154.788C344.088 156.244 346.636 156.972 349.847 156.972Z" fill="#F6450D"/>
<path d="M421.01 165.311C415.495 165.311 411.167 163.855 408.025 160.943C404.954 158.031 403.418 154.027 403.418 148.932V121.931H387.816V110.714H403.418V95.328H416.612V110.714H438.706V121.931H416.612V148.932C416.612 152.373 418.392 154.093 421.952 154.093H437.659V165.311H421.01Z" fill="#F6450D"/>
<path d="M455.942 165.311V110.714H468.298V121.137H471.544L467.67 127.49C467.67 121.6 469.066 117.166 471.858 114.189C474.65 111.211 478.769 109.722 484.214 109.722C490.427 109.722 495.313 111.541 498.873 115.181C502.434 118.821 504.214 123.85 504.214 130.27V134.24H490.497V131.163C490.497 127.656 489.519 124.942 487.565 123.023C485.68 121.104 483.062 120.144 479.711 120.144C476.291 120.144 473.638 121.104 471.753 123.023C469.938 124.942 469.031 127.656 469.031 131.163V165.311H455.942Z" fill="#F6450D"/>
<path d="M533.911 166.303C527.977 166.303 523.3 164.814 519.879 161.836C516.459 158.858 514.749 154.854 514.749 149.825C514.749 144.465 516.633 140.329 520.403 137.417C524.173 134.505 529.513 133.049 536.424 133.049H550.769V128.384C550.769 125.736 549.862 123.685 548.047 122.229C546.232 120.707 543.753 119.946 540.612 119.946C537.75 119.946 535.377 120.542 533.492 121.733C531.607 122.924 530.49 124.545 530.141 126.597H517.366C517.995 121.435 520.438 117.332 524.696 114.288C528.954 111.244 534.399 109.722 541.031 109.722C548.081 109.722 553.631 111.409 557.68 114.784C561.799 118.093 563.858 122.593 563.858 128.284V165.311H551.188V155.781H549.094L551.188 153.101C551.188 157.138 549.617 160.347 546.476 162.73C543.335 165.112 539.146 166.303 533.911 166.303ZM538.204 156.972C541.904 156.972 544.905 156.079 547.209 154.292C549.582 152.505 550.769 150.189 550.769 147.343V140.693H536.633C533.98 140.693 531.851 141.42 530.246 142.876C528.64 144.332 527.837 146.251 527.837 148.634C527.837 151.215 528.745 153.266 530.56 154.788C532.445 156.244 534.993 156.972 538.204 156.972Z" fill="#F6450D"/>
<path d="M596.487 165.311V104.361H576.487V92.8463H629.68V104.361H609.68V165.311H596.487Z" fill="#F6450D"/>
<path d="M665.974 166.303C661.087 166.303 656.829 165.41 653.199 163.623C649.569 161.836 646.742 159.355 644.717 156.178C642.763 152.935 641.786 149.163 641.786 144.862V131.163C641.786 126.861 642.763 123.122 644.717 119.946C646.742 116.703 649.569 114.189 653.199 112.402C656.829 110.615 661.087 109.722 665.974 109.722C670.79 109.722 674.979 110.615 678.539 112.402C682.169 114.189 684.961 116.703 686.916 119.946C688.94 123.122 689.953 126.861 689.953 131.163V140.99H654.456V144.862C654.456 148.7 655.433 151.612 657.388 153.597C659.342 155.516 662.239 156.476 666.078 156.476C669.01 156.476 671.384 156.013 673.199 155.086C675.014 154.093 676.166 152.671 676.654 150.818H689.534C688.556 155.516 685.904 159.288 681.576 162.134C677.317 164.913 672.117 166.303 665.974 166.303ZM677.283 134.042V131.064C677.283 127.292 676.34 124.413 674.455 122.428C672.571 120.376 669.743 119.35 665.974 119.35C662.204 119.35 659.342 120.376 657.388 122.428C655.433 124.479 654.456 127.391 654.456 131.163V133.248L678.225 133.049L677.283 134.042Z" fill="#F6450D"/>
<path d="M728.969 166.303C724.082 166.303 719.789 165.443 716.089 163.722C712.459 161.935 709.632 159.454 707.608 156.277C705.583 153.035 704.571 149.229 704.571 144.862V131.163C704.571 126.729 705.583 122.924 707.608 119.747C709.632 116.571 712.459 114.122 716.089 112.402C719.789 110.615 724.082 109.722 728.969 109.722C736.229 109.722 742.023 111.508 746.351 115.082C750.679 118.589 752.947 123.387 753.157 129.475H740.068C739.859 126.63 738.777 124.446 736.822 122.924C734.937 121.336 732.319 120.542 728.969 120.542C725.478 120.542 722.721 121.468 720.697 123.321C718.672 125.108 717.66 127.689 717.66 131.064V144.862C717.66 148.237 718.672 150.851 720.697 152.704C722.721 154.557 725.478 155.483 728.969 155.483C732.319 155.483 734.937 154.722 736.822 153.2C738.777 151.612 739.859 149.395 740.068 146.549H753.157C752.947 152.638 750.679 157.468 746.351 161.042C742.023 164.549 736.229 166.303 728.969 166.303Z" fill="#F6450D"/>
<path d="M768.09 165.311V92.8463H781.178V110.714L780.864 121.137H784.425L780.864 124.016C780.864 119.516 782.226 116.008 784.948 113.494C787.74 110.979 791.545 109.722 796.362 109.722C802.016 109.722 806.518 111.508 809.869 115.082C813.29 118.655 815 123.453 815 129.475V165.311H801.911V130.766C801.911 127.457 801.004 124.909 799.189 123.122C797.374 121.336 794.826 120.442 791.545 120.442C788.334 120.442 785.786 121.369 783.901 123.222C782.086 125.075 781.178 127.722 781.178 131.163V165.311H768.09Z" fill="#F6450D"/>
</g>
<defs>
<filter id="filter0_d_108_15" x="0" y="0" width="819" height="230" filterUnits="userSpaceOnUse" color-interpolation-filters="sRGB">
<feFlood flood-opacity="0" result="BackgroundImageFix"/>
<feColorMatrix in="SourceAlpha" type="matrix" values="0 0 0 0 0 0 0 0 0 0 0 0 0 0 0 0 0 0 127 0" result="hardAlpha"/>
<feOffset dy="4"/>
<feGaussianBlur stdDeviation="2"/>
<feComposite in2="hardAlpha" operator="out"/>
<feColorMatrix type="matrix" values="0 0 0 0 0 0 0 0 0 0 0 0 0 0 0 0 0 0 0.25 0"/>
<feBlend mode="normal" in2="BackgroundImageFix" result="effect1_dropShadow_108_15"/>
<feBlend mode="normal" in="SourceGraphic" in2="effect1_dropShadow_108_15" result="shape"/>
</filter>
</defs>
</svg>
